<?xml version="1.0" encoding="UTF-8"?>
<svg version="1.1" xmlns="http://www.w3.org/2000/svg" width="512" height="512">
<path d="M0 0 C168.96 0 337.92 0 512 0 C512 168.96 512 337.92 512 512 C343.04 512 174.08 512 0 512 C0 343.04 0 174.08 0 0 Z " fill="#1DDDFE" transform="translate(0,0)"/>
<path d="M0 0 C108.9 0 217.8 0 330 0 C330 109.56 330 219.12 330 332 C221.1 332 112.2 332 0 332 C0 222.44 0 112.88 0 0 Z " fill="#000001" transform="translate(91,92)"/>
<path d="M0 0 C2.31 0 4.62 0 7 0 C9.4375 2.5625 9.4375 2.5625 10.65234375 4.25 C12.11243977 6.14600875 13.66416678 7.52944512 15.5 9.0625 C19.94264978 12.84043513 24.00801977 16.94910861 28.08007812 21.11743164 C30.81665833 23.89767166 33.60058898 26.545813 36.57226562 29.07446289 C41.67346208 33.51790881 46.41949075 38.29435006 51.1875 43.08984375 C52.02474609 43.92809692 52.86199219 44.7663501 53.72460938 45.63000488 C56.81916584 48.72975073 59.90933163 51.83387742 63 54.9375 C69.93 61.888125 76.86 68.83875 84 76 C84.33 51.91 84.66 27.82 85 3 C94.57 3 104.14 3 114 3 C114 45.57 114 88.14 114 132 C106 132 106 132 103.48828125 130.453125 C102.77027344 129.72609375 102.05226563 128.9990625 101.3125 128.25 C100.47074219 127.42628906 99.62898438 126.60257812 98.76171875 125.75390625 C97.39466797 124.39072266 97.39466797 124.39072266 96 123 C94.43522793 121.54875554 92.85459553 120.11616591 91.27294922 118.68334961 C85.7441979 113.66488156 80.42261481 108.47031511 75.17724609 103.15795898 C71.86419386 99.81780499 68.43973645 96.6883707 64.859375 93.640625 C62.18986304 91.28517327 59.7219299 88.74771311 57.25 86.1875 C53.96021061 82.98909365 50.45304933 80.02141816 47 77 C38.09 68.09 38.09 68.09 29 59 C28.67 81.11 28.34 103.22 28 126 C18.76 126 9.52 126 0 126 C0 84.42 0 42.84 0 0 Z " fill="#1DDBFC" transform="translate(261,125)"/>
<path d="M0 0 C0.92167969 0.30679688 1.84335938 0.61359375 2.79296875 0.9296875 C10.40056713 3.72588969 16.84418044 7.62366564 22 14 C22 18 22 18 20.71484375 19.640625 C20.12832031 20.17171875 19.54179687 20.7028125 18.9375 21.25 C15.51834364 24.44075118 12.58447274 27.83766794 9.67578125 31.49609375 C8 33 8 33 4 33 C1.78125 31.7578125 1.78125 31.7578125 -0.5 30.125 C-7.19495015 25.37892233 -11.72355578 24.17355333 -20 25 C-23.45346148 26.34746524 -23.45346148 26.34746524 -26 28 C-26.66 28 -27.32 28 -28 28 C-29.20190901 31.60572704 -29.32670315 34.2102435 -29 38 C-25.42370943 45.15258114 -16.16166881 47.16105116 -9.18359375 49.8828125 C19.75467717 61.18933257 19.75467717 61.18933257 26.2734375 75.10546875 C29.60958185 83.80455482 28.98036554 93.83506929 25.45703125 102.36328125 C21.19072903 110.08380135 14.85188417 116.05796799 7 120 C6.08734375 120.45826172 6.08734375 120.45826172 5.15625 120.92578125 C-5.3871496 125.80441571 -21.88181976 126.12709834 -33.046875 123.09375 C-36.18702462 121.92182813 -39.05821396 120.60192084 -42 119 C-42.8971875 118.54238281 -43.794375 118.08476562 -44.71875 117.61328125 C-51.12763955 114.09032238 -58.60292951 109.19121148 -61 102 C-55.39 96.39 -49.78 90.78 -44 85 C-41.69 86.98 -39.38 88.96 -37 91 C-28.2790249 97.53026616 -21.01416588 100.1564169 -10 99 C-5.92327091 97.85875116 -2.11746268 96.75045578 0.234375 93.06640625 C1.52572546 89.58107771 1.08117891 87.54386422 0 84 C-5.42491743 77.4780334 -12.53537238 74.79585175 -20.3125 72 C-34.33406472 66.90433747 -47.83085217 60.48734382 -54.5 46.3125 C-57.17598191 38.64294471 -57.4891983 29.70113789 -54.375 22.125 C-47.6020067 9.31572496 -38.76365506 2.84904869 -25.08984375 -1.625 C-17.09668931 -3.05928566 -7.65262896 -2.8233 0 0 Z " fill="#1DDCFC" transform="translate(201,128)"/>
<path d="M0 0 C3.40673108 2.57168864 6.3591313 5.48151533 9.19921875 8.66015625 C7.82658512 11.71176234 6.23965302 13.90842557 3.94140625 16.33203125 C3.31621094 16.99589844 2.69101563 17.65976562 2.046875 18.34375 C1.39589844 19.02566406 0.74492187 19.70757812 0.07421875 20.41015625 C-0.58449219 21.10753906 -1.24320312 21.80492187 -1.921875 22.5234375 C-3.54405899 24.23966114 -5.17043504 25.9516906 -6.80078125 27.66015625 C-9.86380201 25.62525249 -12.91303744 23.58157692 -15.92578125 21.47265625 C-21.95298419 17.67289787 -28.85835757 18.01414908 -35.80078125 18.66015625 C-39.04551876 19.90495555 -41.21004546 21.47868467 -42.80078125 24.66015625 C-43.20268527 28.27729242 -43.18527856 30.07747387 -41.15625 33.15234375 C-38.52555015 35.95318836 -36.25335008 37.30031822 -32.80078125 38.97265625 C-32.20628174 39.26261475 -31.61178223 39.55257324 -30.99926758 39.85131836 C-25.60505873 42.41904643 -20.05406876 44.56033003 -14.48828125 46.72265625 C-2.88064059 51.26440083 6.81073954 56.37767435 12.86328125 67.80078125 C16.08033722 75.73555144 15.44894897 86.69745944 13.390625 94.87109375 C9.00587159 104.49024138 0.73692667 111.2068302 -8.7109375 115.5078125 C-22.33201634 120.58773444 -38.53997245 120.56825403 -51.80078125 114.66015625 C-52.72375 114.25925781 -53.64671875 113.85835938 -54.59765625 113.4453125 C-62.45738202 109.61536138 -67.96107704 104.00815193 -73.80078125 97.66015625 C-72.40730749 94.50810644 -70.77593046 92.39843852 -68.32421875 89.98828125 C-67.65390625 89.32441406 -66.98359375 88.66054688 -66.29296875 87.9765625 C-65.24496094 86.95369141 -65.24496094 86.95369141 -64.17578125 85.91015625 C-63.469375 85.21277344 -62.76296875 84.51539063 -62.03515625 83.796875 C-60.29479422 82.08003137 -58.54993144 80.36803793 -56.80078125 78.66015625 C-55.68331606 79.61556072 -54.56619511 80.57136783 -53.44921875 81.52734375 C-52.82708496 82.05956543 -52.20495117 82.59178711 -51.56396484 83.14013672 C-50.17170889 84.34038396 -48.79568198 85.5594556 -47.42578125 86.78515625 C-38.99853064 92.80462097 -31.10239944 93.7946957 -20.80078125 92.66015625 C-16.95803579 91.55901866 -13.74288869 90.2617389 -11.62890625 86.66796875 C-10.53259021 84.00991948 -10.32417579 82.519789 -10.80078125 79.66015625 C-16.34849482 70.34792277 -28.39909611 67.39584745 -37.98828125 63.66015625 C-44.79500802 60.99559012 -51.1596813 58.43048238 -56.80078125 53.66015625 C-57.74244141 52.89832031 -57.74244141 52.89832031 -58.703125 52.12109375 C-65.4274493 46.12180231 -68.8827216 38.79226998 -69.44262695 29.78613281 C-69.67984821 19.06423927 -65.85539333 10.65538327 -58.80078125 2.66015625 C-41.19594109 -11.2673571 -18.91701972 -12.22571027 0 0 Z " fill="#1DDCFC" transform="translate(216.80078125,276.33984375)"/>
<path d="M0 0 C37.62 0 75.24 0 114 0 C114 8.25 114 16.5 114 25 C99.81 25 85.62 25 71 25 C71 57.01 71 89.02 71 122 C61.76 122 52.52 122 43 122 C43 89.99 43 57.98 43 25 C28.81 25 14.62 25 0 25 C0 16.75 0 8.5 0 0 Z " fill="#1CDAFA" transform="translate(261,271)"/>
<path d="M0 0 C0 3 0 3 -1.3125 4.60546875 C-1.869375 5.12753906 -2.42625 5.64960938 -3 6.1875 C-3.556875 6.71730469 -4.11375 7.24710937 -4.6875 7.79296875 C-5.120625 8.19128906 -5.55375 8.58960938 -6 9 C-6.66 8.67 -7.32 8.34 -8 8 C-5.58443874 4.80800833 -3.31996462 2.25283313 0 0 Z " fill="#19CCE2" transform="translate(162,276)"/>
</svg>
